<?xml version="1.0" encoding="UTF-8"?>
<!DOCTYPE svg PUBLIC "-//W3C//DTD SVG 1.1//EN" "http://www.w3.org/Graphics/SVG/1.1/DTD/svg11.dtd">
<!-- Creator: CorelDRAW (Versão de avaliação) -->
<svg xmlns="http://www.w3.org/2000/svg" xml:space="preserve" width="14.337mm" height="12.905mm" version="1.1" style="shape-rendering:geometricPrecision; text-rendering:geometricPrecision; image-rendering:optimizeQuality; fill-rule:evenodd; clip-rule:evenodd"
viewBox="0 0 1433.7 1290.5"
 xmlns:xlink="http://www.w3.org/1999/xlink"
 xmlns:xodm="http://www.corel.com/coreldraw/odm/2003">
 <defs>
  <style type="text/css">
   <![CDATA[
    .fil1 {fill:#284049;fill-rule:nonzero}
    .fil2 {fill:#415E6D;fill-rule:nonzero}
    .fil3 {fill:#A0AFB6;fill-rule:nonzero}
    .fil0 {fill:#EC268F;fill-rule:nonzero}
    .fil5 {fill:#FEFEFE;fill-rule:nonzero}
    .fil4 {fill:#FFF212;fill-rule:nonzero}
   ]]>
  </style>
 </defs>
 <g id="Camada_x0020_1">
  <metadata id="CorelCorpID_0Corel-Layer"/>
  <g id="_2277655039568">
   <path class="fil0" d="M409.14 1235.3c130.66,5.22 258.95,-3.12 384.83,-25.01 115.78,-20.16 253.92,-60.78 340.07,-133.68 87.42,-73.97 107.19,-162.82 59.32,-266.57 58.25,-49.47 79.63,-109.27 64.14,-179.4 -7.36,-33.32 -25.09,-63.26 -53.16,-89.84 9.44,-1.64 18.94,-2.85 28.45,-3.58 3.71,-0.31 6.37,-0.97 8.01,-2.02 3.71,-2.42 4.25,-5.95 1.63,-10.58 -1.2,-2.13 -3.45,-3.62 -6.05,-4.05l-57.03 -8.71c-7.22,-1.12 -12.84,-6.28 -13.95,-12.8 -2.76,-16.53 -5.93,-32.95 -9.51,-49.26 -1.32,-5.73 -4.71,-8.43 -10.19,-8.06 -3.86,0.29 -7.03,2.76 -7.87,6.1l-5.69 21.78c-27.35,-104.79 -86.05,-187.53 -176.12,-248.23 -231.5,-155.91 -553.04,-86.2 -677.23,148.51 -56.01,105.92 -56.79,215.65 -20.39,326.42l-0.23 1.96c-0.11,1.14 -0.5,2.18 -1.17,3.12 -38.69,55.18 -45.97,112.39 -21.85,171.6 20.73,50.66 64.43,90.34 121.95,110.41 8.44,2.95 15.72,6.03 21.85,9.21 28.64,33.48 68.49,56.12 119.54,67.96 84.75,19.61 163.39,16.39 250.61,13.75 32.77,-0.94 149.11,0.12 156.67,40.29 3.76,20.06 -14.06,39.52 -30.03,52.67 -6.74,5.55 -16.73,9.77 -29.89,12.67 -163.2,35.46 -327.31,45.7 -492.33,30.74 -66.51,-36.46 -123.93,-78.78 -172.24,-126.99 -13.27,-13.23 -28.29,-29.71 -45.1,-49.45l-14.68 -18.29c-19.24,-26.99 -32.99,-47.6 -41.28,-61.86 -201.09,-346.41 -22.91,-767.55 382.08,-906.12 261.71,-89.53 560.88,-30.55 758.12,147.55 315.24,284.71 270.33,752.47 -94.21,984.3 -102.3,65.03 -216.8,103.11 -343.51,114.2 -130.43,11.38 -254.95,-8.2 -373.56,-58.74zm-267.97 -632.71c-2.05,-0.5 -3.66,-1.93 -4.26,-3.77l-9.76 -30.19c-0.78,-2.34 -3.17,-3.93 -5.88,-3.93 -2.75,0 -5.17,1.64 -5.93,4.03l-9.3 30.29c-0.57,1.85 -2.15,3.3 -4.2,3.83l-33.55 8.76c-2.59,0.72 -4.36,2.88 -4.36,5.32 0,2.47 1.82,4.65 4.47,5.33l33.67 8.38c2.05,0.5 3.66,1.93 4.26,3.77l9.74 30.19c0.79,2.34 3.18,3.93 5.9,3.93 2.75,0 5.17,-1.66 5.92,-4.03l9.3 -30.29c0.56,-1.85 2.16,-3.3 4.21,-3.83l33.53 -8.78c2.61,-0.7 4.38,-2.86 4.38,-5.3 0,-2.47 -1.84,-4.65 -4.47,-5.34l-33.67 -8.37z"/>
   <path class="fil1" d="M177.28 38.46l0.66 -0.13c6,-1.09 11.85,2.42 13.06,7.82l14.48 64.64c1.22,5.4 -2.66,10.66 -8.68,11.75l-0.65 0.12c-6.01,1.09 -11.85,-2.41 -13.07,-7.81l-14.49 -64.64c-1.2,-5.39 2.69,-10.66 8.69,-11.75l0 0z"/>
   <path class="fil1" d="M56.5 72.54l0.31 -0.28c4.23,-3.81 11.07,-3.81 15.3,0l71.61 64.44c4.21,3.81 4.21,9.97 0,13.76l-0.32 0.29c-4.22,3.79 -11.08,3.79 -15.29,0l-71.61 -64.44c-4.23,-3.81 -4.23,-9.97 0,-13.77l0 0z"/>
   <path class="fil1" d="M1132.14 469.62l-4.42 27.07 -14.46 -6.76c-23.63,-108.37 -82.21,-193.61 -175.72,-255.68 -86.93,-57.73 -186.02,-82.4 -297.22,-73.96 -112.42,8.52 -222.78,64.53 -289.94,142.97 -94.4,110.27 -119.15,235.59 -74.23,375.97 -4.03,4.32 -8.04,9.22 -12.03,14.66 -0.71,0.98 -1.49,1.63 -2.35,1.97 -1.16,0.44 -2.28,0.59 -3.37,0.46 -36.4,-110.77 -35.62,-220.5 20.39,-326.42 124.19,-234.71 445.73,-304.42 677.23,-148.51 90.07,60.7 148.77,143.44 176.12,248.23z"/>
   <path class="fil2" d="M1113.26 489.93l-59.27 -9.02c-6.6,-20.8 -12.19,-36.42 -16.75,-46.83 -39.47,-90.18 -106.97,-155.29 -202.5,-195.35 -102.61,-43.05 -231,-40.88 -332.17,10.85 -64.15,32.76 -113.18,78.38 -147.1,136.85 -38.93,67.13 -52.41,139.64 -40.38,217.53 2.16,13.91 4.65,27.59 7.45,41.03l-46.39 34.24c-44.92,-140.38 -20.17,-265.7 74.23,-375.97 67.16,-78.44 177.52,-134.45 289.94,-142.97 111.2,-8.44 210.29,16.23 297.22,73.96 93.51,62.07 152.09,147.31 175.72,255.68zm-76.13 -136.71c-102.73,-156.12 -317.1,-230.32 -507.28,-156.67 -1.98,0.78 -3.59,2.18 -4.54,3.91 -1.67,3.27 -1.86,6.12 -0.55,8.54 3.09,5.84 7.97,7.58 14.62,5.19 183.06,-65.34 378.78,-1.92 478.32,149.97 3.84,5.84 9.19,7.33 16.02,4.49 0.81,-0.34 1.51,-0.82 2.06,-1.42 4.15,-4.4 4.6,-9.07 1.35,-14.01zm-666.59 -41.08c-31.93,33.57 -55.06,72.13 -69.9,114.32 -0.69,1.95 -0.62,4.05 0.16,5.93 2.84,6.88 7.93,9.09 15.25,6.68 2.71,-0.92 4.84,-2.91 5.77,-5.39 14.63,-40.03 35.91,-75.29 63.86,-105.77 4.97,-5.45 5.71,-13.56 -1.63,-17.64 -4.26,-2.44 -9.99,-1.71 -13.42,1.79l-0.09 0.08z"/>
   <path class="fil3" d="M529.85 196.55c190.18,-73.65 404.55,0.55 507.28,156.67 3.25,4.94 2.8,9.61 -1.35,14.01 -0.55,0.6 -1.25,1.08 -2.06,1.42 -6.83,2.84 -12.18,1.35 -16.02,-4.49 -99.54,-151.89 -295.26,-215.31 -478.32,-149.97 -6.65,2.39 -11.53,0.65 -14.62,-5.19 -1.31,-2.42 -1.12,-5.27 0.55,-8.52 0.95,-1.75 2.56,-3.15 4.54,-3.93l0 0z"/>
   <path class="fil1" d="M31.8 173.1l71.59 13.11c5.99,1.1 9.88,6.37 8.66,11.78l-0.15 0.59c-1.21,5.4 -7.07,8.89 -13.07,7.79l-71.58 -13.11c-6,-1.1 -9.88,-6.37 -8.65,-11.77l0.13 -0.6c1.22,-5.4 7.08,-8.88 13.07,-7.79l0 0z"/>
   <path class="fil1" d="M1053.99 480.91c-8.62,1.28 -16.21,1 -22.74,-0.8 -27.63,-92.26 -84.79,-161.34 -171.46,-207.25 -153.43,-81.26 -355.3,-45.21 -459.06,88.23 -63.4,81.56 -82.24,172.73 -56.51,273.51l-21.68 10.39c-2.8,-13.44 -5.29,-27.12 -7.45,-41.03 -12.03,-77.89 1.45,-150.4 40.38,-217.53 33.92,-58.47 82.95,-104.09 147.1,-136.85 101.17,-51.73 229.56,-53.9 332.17,-10.85 95.53,40.06 163.03,105.17 202.5,195.35 4.56,10.41 10.15,26.03 16.75,46.83z"/>
   <path class="fil0" d="M1031.25 480.11l-13.61 3.72c-11.06,-8.91 -19.01,-14.48 -23.87,-16.73 -40.84,-18.81 -81.45,5.29 -88.23,44.21 -2.11,12.19 -1.17,25.5 2.86,39.92 25.71,92.56 51.72,186.87 78.04,282.95 12.78,46.69 66.66,82.98 113.27,42.5 5.96,-5.14 11.55,-14.34 16.74,-27.63 20.73,-4.69 40.19,-13.15 58.36,-25.36 60.11,126.03 -11.25,227.56 -131.86,288.41 -39.36,19.87 -82.05,36.5 -128.11,49.91 -2.48,0.73 -3.02,0.11 -1.56,-1.87 49.57,-65.58 -16.3,-95.84 -76.07,-103.23 -33.6,-4.15 -67.9,-5.35 -102.91,-3.65 -105.02,5.21 -235.7,8.88 -321.84,-56.34 19.81,1.83 39.01,1.08 57.58,-2.28 15.87,14.26 33.15,20.83 51.86,19.72 47.28,-2.73 65.42,-47.6 55.57,-83.48 -29.02,-105.81 -55.93,-203.43 -80.72,-292.9 -17.13,-61.79 -102.62,-82.21 -128.27,-11.99l-24.26 8.61c-25.73,-100.78 -6.89,-191.95 56.51,-273.51 103.76,-133.44 305.63,-169.49 459.06,-88.23 86.67,45.91 143.83,114.99 171.46,207.25zm-284.22 -61.05c-2.11,-0.5 -3.77,-1.97 -4.37,-3.83l-9.85 -30.05c-0.81,-2.34 -3.22,-3.95 -5.95,-3.95 -2.8,0 -5.24,1.68 -5.98,4.1l-9.03 30.19c-0.57,1.9 -2.18,3.38 -4.26,3.93l-33.39 8.88c-2.6,0.73 -4.37,2.89 -4.37,5.35 0,2.52 1.87,4.71 4.55,5.39l33.55 8.12c2.1,0.5 3.76,1.95 4.36,3.82l9.87 30.04c0.8,2.36 3.2,3.95 5.93,3.95 2.8,0 5.25,-1.67 6,-4.09l9.01 -30.19c0.57,-1.89 2.18,-3.39 4.26,-3.94l33.39 -8.88c2.6,-0.71 4.37,-2.89 4.37,-5.34 0,-2.51 -1.85,-4.72 -4.55,-5.39l-33.54 -8.11zm23.02 273.32c0,-22.22 -20.03,-40.24 -44.7,-40.24 -24.68,0 -44.7,18.02 -44.7,40.24 0,22.21 20.02,40.22 44.7,40.22 24.67,0 44.7,-18.01 44.7,-40.22l0 0zm151.18 183.19c-2.32,-0.57 -4.16,-2.19 -4.81,-4.29l-9.02 -29.43c-0.82,-2.66 -3.52,-4.5 -6.59,-4.5 -3.05,0 -5.75,1.84 -6.58,4.49l-8.96 29.5c-0.62,2.1 -2.44,3.74 -4.76,4.33l-32.71 8.13c-2.96,0.73 -4.99,3.15 -4.99,5.91 0,2.75 2.03,5.19 4.99,5.92l32.77 8.07c2.33,0.56 4.16,2.19 4.81,4.29l9.03 29.44c0.81,2.65 3.51,4.49 6.58,4.49 3.06,0 5.76,-1.84 6.57,-4.49l8.97 -29.49c0.62,-2.11 2.44,-3.76 4.77,-4.34l32.71 -8.11c2.94,-0.75 4.99,-3.17 4.99,-5.94 0,-2.75 -2.05,-5.17 -4.99,-5.92l-32.78 -8.06z"/>
   <path class="fil3" d="M300.64 426.46c14.84,-42.19 37.97,-80.75 69.9,-114.32 3.52,-3.58 9.25,-4.31 13.6,-1.82 7.25,4.03 6.51,12.14 1.54,17.59 -27.95,30.48 -49.23,65.74 -63.86,105.77 -0.93,2.48 -3.06,4.47 -5.77,5.39 -7.32,2.41 -12.41,0.2 -15.25,-6.66 -0.78,-1.9 -0.85,-4 -0.15,-5.97l-0.01 0.02z"/>
   <path class="fil4" d="M747.03 419.06l33.56 8.11c2.68,0.67 4.53,2.88 4.53,5.39 0,2.45 -1.77,4.63 -4.37,5.34l-33.39 8.88c-2.08,0.55 -3.69,2.05 -4.26,3.94l-9.01 30.19c-0.75,2.42 -3.2,4.09 -6,4.09 -2.73,0 -5.13,-1.59 -5.93,-3.95l-9.87 -30.04c-0.6,-1.87 -2.26,-3.32 -4.36,-3.82l-33.55 -8.12c-2.68,-0.68 -4.55,-2.87 -4.55,-5.39 0,-2.46 1.77,-4.62 4.39,-5.35l33.37 -8.88c2.08,-0.55 3.69,-2.03 4.26,-3.93l9.03 -30.19c0.74,-2.42 3.18,-4.1 5.98,-4.1 2.73,0 5.14,1.61 5.93,3.95l9.87 30.05c0.6,1.86 2.26,3.33 4.37,3.83l0 0z"/>
   <path class="fil4" d="M1204.34 540.8l-27.17 3.12c-6.16,1.92 -9.57,5.28 -10.26,10.08 -2.83,19.64 -6.84,38.35 -12.03,56.17 -0.91,3.15 -4.08,5.36 -7.7,5.36 -1.74,0 -3.42,-0.5 -4.8,-1.44 -3.66,-2.48 -5.88,-6.18 -6.66,-11.09 -2.05,-12.98 -4.8,-25.8 -8.23,-38.52 -2.2,-8.11 -1.24,-16.82 -12.89,-19.15 -18.03,-3.62 -37.52,-3.48 -55.9,-7.87 -2.81,-0.63 -5.2,-1.78 -7.17,-3.47 -3.73,-3.09 -3.05,-6.88 2.07,-11.38 1.61,-1.42 3.64,-2.38 5.82,-2.74l49.24 -8.32c10.72,1.15 17.07,-3.8 19.06,-14.86l4.42 -27.07 5.71 -21.83c0.82,-3.29 3.99,-5.76 7.8,-6.05 5.51,-0.37 8.92,2.33 10.24,8.06 3.58,16.31 6.75,32.71 9.51,49.26 1.11,6.52 6.73,11.68 13.95,12.8l57.03 8.71c2.6,0.43 4.85,1.92 6.05,4.05 2.62,4.63 2.08,8.16 -1.63,10.58 -1.64,1.05 -4.3,1.71 -8.01,2.02 -9.51,0.73 -19.01,1.94 -28.45,3.58z"/>
   <path class="fil1" d="M1017.64 483.83l12.32 18.31 72.82 262.83 15.64 62.27 -1.97 21.81c-5.19,13.29 -10.78,22.49 -16.74,27.63 -46.61,40.48 -100.49,4.19 -113.27,-42.5 -26.32,-96.08 -52.33,-190.39 -78.04,-282.95 -4.03,-14.42 -4.97,-27.73 -2.86,-39.92 6.78,-38.92 47.39,-63.02 88.23,-44.21 4.86,2.25 12.81,7.82 23.87,16.73zm75.4 333.26c-25.77,-95.77 -54.01,-199.57 -82.12,-297.36 -5.05,-17.54 -22.3,-37.26 -44.36,-38.92 -6.47,-0.47 -12.11,0.81 -16.93,3.83 -20.2,12.77 -26.51,32.96 -18.92,60.55 21.31,77.53 46.85,170.52 76.62,278.96 5.5,19.91 15.46,39.18 37.13,47.1 37.09,13.51 55.29,-28.89 48.58,-54.16z"/>
   <path class="fil5" d="M1031.25 480.11c6.53,1.8 14.12,2.08 22.74,0.8l59.27 9.02 14.46 6.76c-1.99,11.06 -8.34,16.01 -19.06,14.86 -25.28,-10.01 -51.52,-13.15 -78.7,-9.41l-12.32 -18.31 13.61 -3.72z"/>
   <path class="fil2" d="M1010.92 519.73c28.11,97.79 56.35,201.59 82.12,297.36 6.71,25.27 -11.49,67.67 -48.58,54.16 -21.67,-7.92 -31.63,-27.19 -37.13,-47.1 -29.77,-108.44 -55.31,-201.43 -76.62,-278.96 -7.59,-27.59 -1.28,-47.78 18.92,-60.55 4.82,-3.02 10.46,-4.3 16.93,-3.83 22.06,1.66 39.31,21.38 44.36,38.92zm-15.46 -6.57c-1.18,-4.37 -5.52,-7.45 -10.52,-7.45 -0.84,0 -1.7,0.1 -2.53,0.28l-0.33 0.07c-4.84,1.05 -8.27,4.97 -8.27,9.46 0,0.76 0.11,1.54 0.31,2.29l58.08 216.08c1.18,4.35 5.52,7.43 10.51,7.43 0.86,0 1.7,-0.1 2.53,-0.28l0.34 -0.06c4.85,-1.06 8.26,-4.96 8.26,-9.47 0,-0.76 -0.09,-1.53 -0.31,-2.27l-58.07 -216.08z"/>
   <path class="fil5" d="M1108.66 511.55l-49.24 8.32c-2.18,0.36 -4.21,1.32 -5.82,2.74 -5.12,4.5 -5.8,8.29 -2.07,11.38 1.97,1.69 4.36,2.84 7.17,3.47 18.38,4.39 37.87,4.25 55.9,7.87 11.65,2.33 10.69,11.04 12.89,19.15 3.43,12.72 6.18,25.54 8.23,38.52 0.78,4.91 3,8.6 6.66,11.09 1.38,0.94 3.06,1.44 4.8,1.44 3.62,0 6.79,-2.21 7.7,-5.36 5.19,-17.82 9.2,-36.53 12.03,-56.17 0.69,-4.8 4.1,-8.16 10.26,-10.08 5.71,6.32 11.3,12.27 16.75,17.85 23.31,23.78 37.1,49.31 41.39,76.57 -23.82,63.55 -67.99,105.76 -132.53,126.63l-72.82 -262.83c27.18,-3.74 53.42,-0.6 78.7,9.41z"/>
   <path class="fil3" d="M982.08 506.06l0.33 -0.07c5.8,-1.27 11.64,1.95 13.05,7.17l58.09 216.08c1.4,5.22 -2.16,10.47 -7.97,11.74l-0.32 0.08c-5.8,1.25 -11.66,-1.95 -13.06,-7.17l-58.08 -216.08c-1.4,-5.22 2.16,-10.49 7.96,-11.75l0 0z"/>
   <path class="fil5" d="M1204.34 540.8c28.07,26.58 45.8,56.52 53.16,89.84 15.49,70.13 -5.89,129.93 -64.14,179.4 -8.43,-9.24 -15.85,-9.56 -22.24,-0.96 -0.97,1.28 -1.44,2.92 -1.25,4.55 0.6,4.47 2.26,7.82 4.94,10.06 -18.17,12.21 -37.63,20.67 -58.36,25.36l1.97 -21.81c38.27,-14.33 68.56,-36.37 90.84,-66.15 27.67,-37.04 36.36,-77.94 26.05,-122.75 -4.29,-27.26 -18.1,-52.79 -41.39,-76.57 -5.45,-5.58 -11.04,-11.53 -16.75,-17.85l27.17 -3.12z"/>
   <path class="fil4" d="M141.17 602.59l33.65 8.37c2.65,0.69 4.49,2.87 4.49,5.34 0,2.44 -1.77,4.6 -4.38,5.3l-33.53 8.78c-2.05,0.53 -3.65,1.98 -4.21,3.83l-9.3 30.29c-0.75,2.37 -3.17,4.03 -5.92,4.03 -2.72,0 -5.11,-1.59 -5.9,-3.93l-9.74 -30.19c-0.6,-1.84 -2.21,-3.27 -4.26,-3.77l-33.67 -8.38c-2.65,-0.68 -4.47,-2.86 -4.47,-5.33 0,-2.44 1.77,-4.6 4.36,-5.3l33.55 -8.78c2.05,-0.53 3.63,-1.98 4.2,-3.83l9.3 -30.29c0.76,-2.39 3.18,-4.03 5.93,-4.03 2.71,0 5.1,1.59 5.88,3.93l9.76 30.19c0.6,1.84 2.21,3.27 4.26,3.77l0 0z"/>
   <path class="fil1" d="M470.04 994.64l-12.44 -15.88 -21.12 -69.16 -71.92 -262.59 3.92 -21.02c25.65,-70.22 111.14,-49.8 128.27,11.99 24.79,89.47 51.7,187.09 80.72,292.9 9.85,35.88 -8.29,80.75 -55.57,83.48 -18.71,1.11 -35.99,-5.46 -51.86,-19.72zm82 -22.27c5.27,-12.34 6.21,-24.65 2.85,-36.91 -27.48,-100.29 -54.27,-197.53 -80.38,-291.72 -5.48,-19.92 -26.21,-45.57 -52.32,-41.29 -30.3,4.99 -36.35,38.05 -30.19,60.29 29.92,108.69 56.69,205.82 80.33,291.42 3.74,13.44 11.71,24.37 23.92,32.77 21.07,14.42 46.31,7.56 55.79,-14.56z"/>
   <path class="fil2" d="M552.04 972.37c-9.48,22.12 -34.72,28.98 -55.79,14.56 -12.21,-8.4 -20.2,-19.33 -23.92,-32.77 -23.64,-85.6 -50.41,-182.73 -80.33,-291.42 -6.16,-22.24 -0.11,-55.3 30.19,-60.29 26.11,-4.28 46.84,21.37 52.32,41.29 26.11,94.19 52.9,191.43 80.38,291.72 3.36,12.26 2.42,24.57 -2.85,36.91zm-101.09 -340.4c-1.17,-4.29 -5.44,-7.32 -10.34,-7.32 -0.86,0 -1.7,0.1 -2.52,0.28l-0.66 0.15c-4.77,1.04 -8.12,4.89 -8.12,9.3 0,0.76 0.1,1.52 0.3,2.27l16.82 62.1c1.17,4.28 5.43,7.3 10.34,7.3 0.85,0 1.71,-0.08 2.52,-0.27l0.65 -0.13c4.78,-1.06 8.13,-4.9 8.13,-9.32 0,-0.76 -0.1,-1.53 -0.31,-2.26l-16.81 -62.1zm32.52 106c-1.16,-4.34 -5.5,-7.42 -10.46,-7.42 -0.84,0 -1.69,0.09 -2.52,0.26l-0.43 0.1c-4.83,1.04 -8.25,4.94 -8.25,9.41 0,0.77 0.1,1.52 0.3,2.26l32.35 121.28c1.17,4.35 5.49,7.42 10.47,7.42 0.84,0 1.69,-0.1 2.5,-0.28l0.44 -0.08c4.83,-1.06 8.24,-4.94 8.24,-9.43 0,-0.75 -0.09,-1.51 -0.29,-2.26l-32.35 -121.26z"/>
   <path class="fil3" d="M437.43 625.08l0.65 -0.15c5.72,-1.25 11.48,1.9 12.87,7.04l16.81 62.1c1.4,5.14 -2.09,10.33 -7.82,11.58l-0.65 0.14c-5.7,1.26 -11.46,-1.9 -12.86,-7.04l-16.82 -62.1c-1.38,-5.14 2.11,-10.32 7.82,-11.57l0 0z"/>
   <path class="fil5" d="M368.48 625.99l-3.92 21.02c-19.51,8.68 -33.52,15.93 -42.07,21.78 -40.89,28 -66.07,64.8 -75.52,110.45 -0.32,1.58 0.2,4.56 1.58,8.91 -1.74,2.64 -3.76,5.61 -3.82,8.73 -1.08,69.33 29.65,121.22 92.21,155.67 34.24,18.86 74.46,27.59 120.66,26.21l12.44 15.88c-18.57,3.36 -37.77,4.11 -57.58,2.28 -10.1,-3.11 -21.27,-4.52 -33.51,-4.3 -6.13,-3.18 -13.41,-6.26 -21.85,-9.21 -57.52,-20.07 -101.22,-59.75 -121.95,-110.41 -24.12,-59.21 -16.84,-116.42 21.85,-171.6 0.67,-0.94 1.06,-1.98 1.17,-3.12l0.23 -1.96c1.09,0.13 2.21,-0.02 3.37,-0.46 0.86,-0.34 1.64,-0.99 2.35,-1.97 3.99,-5.44 8,-10.34 12.03,-14.66l46.39 -34.24 21.68 -10.39 24.26 -8.61z"/>
   <path class="fil5" d="M1235.31 638.34c10.31,44.81 1.62,85.71 -26.05,122.75 -22.28,29.78 -52.57,51.82 -90.84,66.15l-15.64 -62.27c64.54,-20.87 108.71,-63.08 132.53,-126.63z"/>
   <path class="fil5" d="M364.56 647.01l71.92 262.59c-82.13,-5.01 -141.31,-39.44 -177.58,-103.29 -3.43,-6.04 -6.89,-12.11 -10.35,-18.16 -1.38,-4.35 -1.9,-7.33 -1.58,-8.91 9.45,-45.65 34.63,-82.45 75.52,-110.45 8.55,-5.85 22.56,-13.1 42.07,-21.78z"/>
   <path class="fil4" d="M770.05 692.38c0,22.21 -20.03,40.22 -44.7,40.22 -24.68,0 -44.7,-18.01 -44.7,-40.22 0,-22.22 20.02,-40.24 44.7,-40.24 24.67,0 44.7,18.02 44.7,40.24l0 0zm-21.18 -0.05c0,-11.67 -10.5,-21.13 -23.46,-21.13 -12.97,0 -23.47,9.46 -23.47,21.13 0,11.66 10.5,21.12 23.47,21.12 12.96,0 23.46,-9.46 23.46,-21.12l0 0z"/>
   <ellipse class="fil0" cx="725.41" cy="692.33" rx="23.48" ry="21.12"/>
   <path class="fil3" d="M470.06 730.91l0.43 -0.1c5.78,-1.23 11.6,1.97 12.98,7.16l32.35 121.28c1.38,5.18 -2.18,10.42 -7.95,11.65l-0.44 0.1c-5.77,1.25 -11.57,-1.95 -12.96,-7.15l-32.36 -121.27c-1.39,-5.2 2.17,-10.42 7.95,-11.67l0 0z"/>
   <path class="fil5" d="M248.55 788.15c3.46,6.05 6.92,12.12 10.35,18.16 36.27,63.85 95.45,98.28 177.58,103.29l21.12 69.16c-46.2,1.38 -86.42,-7.35 -120.66,-26.21 -62.56,-34.45 -93.29,-86.34 -92.21,-155.67 0.06,-3.12 2.08,-6.09 3.82,-8.73z"/>
   <path class="fil1" d="M1193.36 810.04c47.87,103.74 28.1,192.6 -59.32,266.57 -86.15,72.9 -224.29,113.52 -340.07,133.68 -125.88,21.89 -254.17,30.23 -384.83,25.01 -67.52,-4 -124.11,-11.85 -169.78,-23.59 -43.75,-11.28 -79.15,-25.56 -108.5,-56.25 -41.6,-43.43 -44.72,-89.92 -9.36,-139.49l14.68 18.29c-40.45,58.98 5.54,121.49 65.76,144.43 43.1,16.4 93.62,27.07 151.58,32.01 165.02,14.96 329.13,4.72 492.33,-30.74 13.16,-2.9 23.15,-7.12 29.89,-12.67 15.97,-13.15 33.79,-32.61 30.03,-52.67 -7.56,-40.17 -123.9,-41.23 -156.67,-40.29 -87.22,2.64 -165.86,5.86 -250.61,-13.75 -51.05,-11.84 -90.9,-34.48 -119.54,-67.96 12.24,-0.22 23.41,1.21 33.51,4.3 86.14,65.22 216.82,61.55 321.84,56.34 35.01,-1.7 69.31,-0.5 102.91,3.65 59.77,7.39 125.64,37.65 76.07,103.23 -1.46,1.98 -0.92,2.6 1.56,1.87 46.06,-13.41 88.75,-30.04 128.11,-49.91 120.61,-60.85 191.97,-162.38 131.86,-288.41 -2.68,-2.24 -4.32,-5.57 -4.92,-9.96 -0.21,-1.73 0.26,-3.37 1.28,-4.72 6.36,-8.55 13.76,-8.21 22.19,1.03z"/>
   <path class="fil4" d="M921.23 875.57l32.78 8.06c2.94,0.75 4.99,3.17 4.99,5.92 0,2.77 -2.05,5.19 -4.99,5.94l-32.71 8.11c-2.33,0.58 -4.15,2.23 -4.77,4.34l-8.95 29.49c-0.83,2.65 -3.53,4.49 -6.59,4.49 -3.07,0 -5.77,-1.84 -6.58,-4.49l-9.03 -29.44c-0.65,-2.1 -2.48,-3.73 -4.81,-4.29l-32.77 -8.07c-2.96,-0.73 -4.99,-3.17 -4.99,-5.92 0,-2.76 2.03,-5.18 4.99,-5.93l32.71 -8.11c2.32,-0.59 4.14,-2.23 4.76,-4.34l8.97 -29.48c0.82,-2.66 3.52,-4.5 6.57,-4.5 3.07,0 5.77,1.84 6.59,4.49l9.02 29.45c0.65,2.09 2.49,3.71 4.81,4.28l0 0z"/>
  </g>
 </g>
</svg>
